# xmcd
#
# Track frame offsets: 
#        150
#        17757
#        40327
#        56152
#        69650
#        84985
#        97637
#        115900
#        124757
#        154432
#        188255
#        204505
#
# Disc length: 3466 seconds
#
# Revision: 0
# Processed by: cddbd v1.5PL3 Copyright (c) Steve Scherf et al.
# Submitted via: ExactAudioCopy v0.95a4
#
DISCID=970d880c
DTITLE=Don Griffin - Play It Loud
DYEAR=2000
DGENRE=Blues
TTITLE0=New Scene
TTITLE1=Gone Too Far
TTITLE2=Play It LOud
TTITLE3=See It My Way
TTITLE4=Since
TTITLE5=Found Out
TTITLE6=Mama
TTITLE7=Love Remains
TTITLE8=Big Leg Woman
TTITLE9=Long Distance Call
TTITLE10=Give It To You
TTITLE11=Peter Gun Medley
EXTD=
EXTT0=
EXTT1=
EXTT2=
EXTT3=
EXTT4=
EXTT5=
EXTT6=
EXTT7=
EXTT8=
EXTT9=
EXTT10=
EXTT11=
PLAYORDER=
